<svg xmlns="http://www.w3.org/2000/svg" width="596.632" height="150" viewBox="0 0 596.632 150"><g transform="translate(-668 -471)"><path d="M125,150H25A24.979,24.979,0,0,1,0,125V25A24.98,24.98,0,0,1,25,0H125a24.979,24.979,0,0,1,25,25V125a24.979,24.979,0,0,1-25,25ZM60.548,97.032H89.87v14.661h14.661V67.76a28.684,28.684,0,0,0-2.3-11.417A29.406,29.406,0,0,0,86.627,40.737a29.494,29.494,0,0,0-22.835,0,29.425,29.425,0,0,0-9.3,6.283,29.977,29.977,0,0,0-6.258,9.323,28.684,28.684,0,0,0-2.3,11.417v43.933h14.61V97.033ZM89.87,82.421H60.548V67.76a14.381,14.381,0,0,1,1.149-5.7,14.638,14.638,0,0,1,7.816-7.816,14.688,14.688,0,0,1,11.391,0,14.638,14.638,0,0,1,7.817,7.816,14.381,14.381,0,0,1,1.149,5.7V82.42Z" transform="translate(668 471)" fill="#2c5282"/><path d="M44.366-26.02V-39.053a12.718,12.718,0,0,0-1.022-5.063,13.122,13.122,0,0,0-2.793-4.155A13.122,13.122,0,0,0,36.4-51.064a12.718,12.718,0,0,0-5.063-1.022,12.718,12.718,0,0,0-5.063,1.022,13.122,13.122,0,0,0-4.155,2.793,13.122,13.122,0,0,0-2.793,4.155A12.718,12.718,0,0,0,18.3-39.053V-26.02ZM57.4,0H44.366V-13.033H18.3V0H5.313V-39.053A25.385,25.385,0,0,1,7.356-49.2a26.507,26.507,0,0,1,5.563-8.287,26.042,26.042,0,0,1,8.265-5.585,25.385,25.385,0,0,1,10.149-2.043,25.385,25.385,0,0,1,10.149,2.043,26.313,26.313,0,0,1,8.287,5.585A26.313,26.313,0,0,1,55.355-49.2,25.385,25.385,0,0,1,57.4-39.053ZM82.011-61.849a7.925,7.925,0,0,1-.658,3.224,8.28,8.28,0,0,1-1.794,2.611A8.683,8.683,0,0,1,76.9-54.242a8.085,8.085,0,0,1-3.247.658,8.085,8.085,0,0,1-3.247-.658,8.4,8.4,0,0,1-2.634-1.771A8.474,8.474,0,0,1,66-58.625a7.925,7.925,0,0,1-.658-3.224A7.975,7.975,0,0,1,66-65.05a8.4,8.4,0,0,1,1.771-2.634,8.4,8.4,0,0,1,2.634-1.771,8.085,8.085,0,0,1,3.247-.658,8.085,8.085,0,0,1,3.247.658,8.683,8.683,0,0,1,2.656,1.771,8.212,8.212,0,0,1,1.794,2.634A7.975,7.975,0,0,1,82.011-61.849ZM79.876,0H67.389V-48.634H79.876Zm56.445,0h-3l-4.813-6.675A39.885,39.885,0,0,1,124.764-3.7a27.713,27.713,0,0,1-4.155,2.407A25.493,25.493,0,0,1,116.136.318a18.6,18.6,0,0,1-4.655.59,24.306,24.306,0,0,1-9.65-1.93,24.508,24.508,0,0,1-7.9-5.358A25.2,25.2,0,0,1,88.6-14.509a26.427,26.427,0,0,1-1.953-10.24A26.476,26.476,0,0,1,88.6-34.966a25.4,25.4,0,0,1,5.336-8.174,24.633,24.633,0,0,1,7.9-5.4,24.062,24.062,0,0,1,9.65-1.953,21.968,21.968,0,0,1,3.383.272,17.611,17.611,0,0,1,3.406.885,14.108,14.108,0,0,1,3.111,1.612,9.444,9.444,0,0,1,2.452,2.452V-67.979h12.488ZM123.833-24.749a12.883,12.883,0,0,0-.976-4.927A14.158,14.158,0,0,0,120.2-33.9a13.209,13.209,0,0,0-3.928-2.952,10.656,10.656,0,0,0-4.791-1.113,12.666,12.666,0,0,0-4.791.908,11.284,11.284,0,0,0-3.905,2.611,12.222,12.222,0,0,0-2.611,4.155,15.188,15.188,0,0,0-.954,5.54,13.68,13.68,0,0,0,.954,5.086,13.67,13.67,0,0,0,2.611,4.223,12.181,12.181,0,0,0,3.905,2.861,11.231,11.231,0,0,0,4.791,1.044,10.656,10.656,0,0,0,4.791-1.113A13.209,13.209,0,0,0,120.2-15.6a14.158,14.158,0,0,0,2.656-4.223A12.883,12.883,0,0,0,123.833-24.749Zm33.649,43.276V6.04l6.9.091a10.471,10.471,0,0,0,3.5-.59,11.98,11.98,0,0,0,3.111-1.635,12.2,12.2,0,0,0,2.52-2.475,13.441,13.441,0,0,0,1.771-3.111q-2.043.863-4.155,1.726a11.145,11.145,0,0,1-4.246.863,22.416,22.416,0,0,1-8.446-1.589A20.857,20.857,0,0,1,151.511-5.2a20.859,20.859,0,0,1-4.677-7.129,24.88,24.88,0,0,1-1.7-9.423V-48.634h12.352v26.883a12.45,12.45,0,0,0,.749,4.518,9.366,9.366,0,0,0,2.021,3.224,8.084,8.084,0,0,0,2.974,1.93,10.367,10.367,0,0,0,3.656.636,7.716,7.716,0,0,0,3.61-.885,10.13,10.13,0,0,0,2.974-2.339,11.215,11.215,0,0,0,2-3.292,10.232,10.232,0,0,0,.727-3.792V-48.634h12.488v42.5a24.455,24.455,0,0,1-2,9.627,24.987,24.987,0,0,1-5.336,7.856,25.458,25.458,0,0,1-7.879,5.313,23.9,23.9,0,0,1-9.627,1.953ZM224.826,0H196.49V-12.352h28.336a2.973,2.973,0,0,0,2.18-.908,2.973,2.973,0,0,0,.908-2.18,1.691,1.691,0,0,0-.908-1.726,5.285,5.285,0,0,0-2.18-.409h-12.9a14.96,14.96,0,0,1-6.04-1.226,15.565,15.565,0,0,1-4.9-3.338,15.714,15.714,0,0,1-3.292-4.927,15.2,15.2,0,0,1-1.2-6.04,15.2,15.2,0,0,1,1.2-6.04,15.442,15.442,0,0,1,3.292-4.9,15.442,15.442,0,0,1,4.9-3.292,15.2,15.2,0,0,1,6.04-1.2h25.112v12.352H211.929a2.973,2.973,0,0,0-2.18.908,2.973,2.973,0,0,0-.908,2.18,3.1,3.1,0,0,0,.908,2.248,2.937,2.937,0,0,0,2.18.931h12.9a16.769,16.769,0,0,1,5.994,1.067,15.154,15.154,0,0,1,4.9,2.974,14.048,14.048,0,0,1,3.315,4.586,13.908,13.908,0,0,1,1.226,5.858,14.8,14.8,0,0,1-1.226,6.017,16.118,16.118,0,0,1-3.315,4.9,15.257,15.257,0,0,1-4.9,3.315A15.09,15.09,0,0,1,224.826,0Zm61.667-26.02V-39.053a12.718,12.718,0,0,0-1.022-5.063,13.122,13.122,0,0,0-2.793-4.155,13.122,13.122,0,0,0-4.155-2.793,12.718,12.718,0,0,0-5.063-1.022,12.718,12.718,0,0,0-5.063,1.022,13.122,13.122,0,0,0-4.155,2.793,13.122,13.122,0,0,0-2.793,4.155,12.718,12.718,0,0,0-1.022,5.063V-26.02ZM299.525,0H286.493V-13.033H260.427V0H247.44V-39.053A25.385,25.385,0,0,1,249.483-49.2a26.507,26.507,0,0,1,5.563-8.287,26.042,26.042,0,0,1,8.265-5.585,25.385,25.385,0,0,1,10.149-2.043,25.385,25.385,0,0,1,10.149,2.043,26.313,26.313,0,0,1,8.287,5.585,26.313,26.313,0,0,1,5.585,8.287,25.385,25.385,0,0,1,2.043,10.149Zm24.34-52.085V-26.02H336.9a12.556,12.556,0,0,0,5.041-1.022,13.192,13.192,0,0,0,4.132-2.793,13.122,13.122,0,0,0,2.793-4.155,12.717,12.717,0,0,0,1.022-5.063,12.718,12.718,0,0,0-1.022-5.063,13.122,13.122,0,0,0-2.793-4.155,13.192,13.192,0,0,0-4.132-2.793,12.556,12.556,0,0,0-5.041-1.022Zm0,52.085H310.833V-65.118H336.9a25.409,25.409,0,0,1,6.9.931,25.9,25.9,0,0,1,6.2,2.634,26.427,26.427,0,0,1,5.268,4.087,26.141,26.141,0,0,1,4.087,5.29,26.331,26.331,0,0,1,2.634,6.221,25.409,25.409,0,0,1,.931,6.9,25.273,25.273,0,0,1-2.043,10.1,26.313,26.313,0,0,1-5.585,8.287A26.313,26.313,0,0,1,347-15.076a25.273,25.273,0,0,1-10.1,2.043H323.865ZM383.58-52.085V-26.02h13.033a12.556,12.556,0,0,0,5.041-1.022,13.192,13.192,0,0,0,4.132-2.793,13.122,13.122,0,0,0,2.793-4.155,12.717,12.717,0,0,0,1.022-5.063,12.718,12.718,0,0,0-1.022-5.063,13.122,13.122,0,0,0-2.793-4.155,13.192,13.192,0,0,0-4.132-2.793,12.556,12.556,0,0,0-5.041-1.022ZM383.58,0H370.547V-65.118h26.065a25.409,25.409,0,0,1,6.9.931,25.9,25.9,0,0,1,6.2,2.634,26.427,26.427,0,0,1,5.268,4.087,26.141,26.141,0,0,1,4.087,5.29,26.331,26.331,0,0,1,2.634,6.221,25.409,25.409,0,0,1,.931,6.9,25.273,25.273,0,0,1-2.043,10.1A26.313,26.313,0,0,1,415-20.662a26.313,26.313,0,0,1-8.287,5.585,25.273,25.273,0,0,1-10.1,2.043H383.58Z" transform="translate(842 550)" fill="#4a5568"/><path d="M29.484-29.82a2.515,2.515,0,0,1,1.89.735,2.683,2.683,0,0,1,.714,1.953V-2.268A2.5,2.5,0,0,1,31.416-.42a2.385,2.385,0,0,1-1.764.672A2.246,2.246,0,0,1,27.93-.42a2.6,2.6,0,0,1-.63-1.848v-17.3L20.16-6.048a4.17,4.17,0,0,1-1.092,1.365,2.245,2.245,0,0,1-1.386.441,2.322,2.322,0,0,1-1.386-.42A3.862,3.862,0,0,1,15.2-6.048L8.022-19.362V-2.268A2.56,2.56,0,0,1,7.371-.441,2.278,2.278,0,0,1,5.628.252,2.246,2.246,0,0,1,3.906-.42a2.6,2.6,0,0,1-.63-1.848V-27.132a2.731,2.731,0,0,1,.693-1.953,2.446,2.446,0,0,1,1.869-.735A2.827,2.827,0,0,1,8.4-28.014l9.324,17.766,9.282-17.766A2.779,2.779,0,0,1,29.484-29.82ZM47.418.336A11.3,11.3,0,0,1,41.9-.966,9.009,9.009,0,0,1,38.22-4.7a11.851,11.851,0,0,1-1.3-5.67,11.727,11.727,0,0,1,1.3-5.649A9.04,9.04,0,0,1,41.9-19.74a11.3,11.3,0,0,1,5.523-1.3,11.3,11.3,0,0,1,5.523,1.3A8.908,8.908,0,0,1,56.6-16.023a11.885,11.885,0,0,1,1.281,5.649A12.01,12.01,0,0,1,56.6-4.7,8.879,8.879,0,0,1,52.941-.966,11.3,11.3,0,0,1,47.418.336Zm-.042-4.074a4.707,4.707,0,0,0,3.906-1.68,7.805,7.805,0,0,0,1.344-4.956,7.82,7.82,0,0,0-1.344-4.935,4.634,4.634,0,0,0-3.864-1.7,4.694,4.694,0,0,0-3.885,1.7,7.733,7.733,0,0,0-1.365,4.935,7.805,7.805,0,0,0,1.344,4.956A4.659,4.659,0,0,0,47.376-3.738ZM79.338-29.82a2.8,2.8,0,0,1,1.932.672,2.247,2.247,0,0,1,.756,1.764V-2.268a2.362,2.362,0,0,1-.714,1.806,2.645,2.645,0,0,1-1.89.672,2.645,2.645,0,0,1-1.89-.672,2.362,2.362,0,0,1-.714-1.806v-1.05A6.575,6.575,0,0,1,74.151-.63a8.049,8.049,0,0,1-3.969.966,8.512,8.512,0,0,1-4.725-1.344,8.912,8.912,0,0,1-3.234-3.8,13.135,13.135,0,0,1-1.155-5.649,12.719,12.719,0,0,1,1.155-5.586,8.749,8.749,0,0,1,3.213-3.7,8.686,8.686,0,0,1,4.746-1.3,8.22,8.22,0,0,1,3.948.924,6.41,6.41,0,0,1,2.646,2.6v-9.954a2.226,2.226,0,0,1,.693-1.7A2.619,2.619,0,0,1,79.338-29.82ZM71.568-3.738A4.669,4.669,0,0,0,75.453-5.46a7.749,7.749,0,0,0,1.365-4.914,7.657,7.657,0,0,0-1.365-4.893,4.647,4.647,0,0,0-3.843-1.7,4.78,4.78,0,0,0-3.906,1.68,7.411,7.411,0,0,0-1.386,4.83A7.847,7.847,0,0,0,67.7-5.5,4.637,4.637,0,0,0,71.568-3.738Zm32.13-1.89a1.413,1.413,0,0,1,1.155.546,2.272,2.272,0,0,1,.441,1.47,2.546,2.546,0,0,1-1.554,2.184,14.04,14.04,0,0,1-3.234,1.281,13.333,13.333,0,0,1-3.444.483A10.7,10.7,0,0,1,89.208-2.52a10.469,10.469,0,0,1-2.9-7.812,11.985,11.985,0,0,1,1.26-5.586,9.162,9.162,0,0,1,3.549-3.78,10.051,10.051,0,0,1,5.187-1.344,9.307,9.307,0,0,1,4.83,1.218,8.259,8.259,0,0,1,3.192,3.444,11.428,11.428,0,0,1,1.134,5.25q0,1.806-1.6,1.806H91.476a6.608,6.608,0,0,0,1.638,4.263A5.512,5.512,0,0,0,97.146-3.7a7.645,7.645,0,0,0,2.373-.336,23.424,23.424,0,0,0,2.331-.924A4.635,4.635,0,0,1,103.7-5.628ZM96.432-17.346A4.507,4.507,0,0,0,93.009-16a6.346,6.346,0,0,0-1.533,3.864h9.492a5.989,5.989,0,0,0-1.26-3.885A4.156,4.156,0,0,0,96.432-17.346Zm24.78-3.612a2.261,2.261,0,0,1,1.722.462,2.051,2.051,0,0,1,.63,1.638,2.288,2.288,0,0,1-.546,1.68,3.354,3.354,0,0,1-1.974.714l-1.26.126a5.1,5.1,0,0,0-3.633,1.68A5.494,5.494,0,0,0,115-11.088v8.82A2.332,2.332,0,0,1,114.24-.4a2.794,2.794,0,0,1-1.89.651A2.714,2.714,0,0,1,110.481-.4a2.365,2.365,0,0,1-.735-1.869V-18.522a2.248,2.248,0,0,1,.735-1.806,2.709,2.709,0,0,1,1.827-.63,2.526,2.526,0,0,1,1.764.609,2.232,2.232,0,0,1,.672,1.743v1.68a6.216,6.216,0,0,1,2.373-2.856,7.275,7.275,0,0,1,3.507-1.134Zm16.548-.084q3.7,0,5.5,2.1t1.806,6.342V-2.268a2.454,2.454,0,0,1-.693,1.848,2.629,2.629,0,0,1-1.911.672,2.7,2.7,0,0,1-1.932-.672,2.415,2.415,0,0,1-.714-1.848V-12.306a5.445,5.445,0,0,0-.9-3.486,3.47,3.47,0,0,0-2.835-1.092,4.792,4.792,0,0,0-3.633,1.428,5.3,5.3,0,0,0-1.365,3.822v9.366a2.415,2.415,0,0,1-.714,1.848,2.7,2.7,0,0,1-1.932.672,2.629,2.629,0,0,1-1.911-.672,2.454,2.454,0,0,1-.693-1.848V-18.522a2.31,2.31,0,0,1,.714-1.764,2.7,2.7,0,0,1,1.932-.672,2.5,2.5,0,0,1,1.785.651,2.226,2.226,0,0,1,.693,1.7v1.134a7.1,7.1,0,0,1,2.814-2.646A8.469,8.469,0,0,1,137.76-21.042Zm50.778-8.778a2.515,2.515,0,0,1,1.89.735,2.683,2.683,0,0,1,.714,1.953V-2.268A2.5,2.5,0,0,1,190.47-.42a2.385,2.385,0,0,1-1.764.672,2.246,2.246,0,0,1-1.722-.672,2.6,2.6,0,0,1-.63-1.848v-17.3l-7.14,13.524a4.17,4.17,0,0,1-1.092,1.365,2.245,2.245,0,0,1-1.386.441,2.322,2.322,0,0,1-1.386-.42,3.862,3.862,0,0,1-1.092-1.386l-7.182-13.314V-2.268a2.56,2.56,0,0,1-.651,1.827,2.278,2.278,0,0,1-1.743.693A2.246,2.246,0,0,1,162.96-.42a2.6,2.6,0,0,1-.63-1.848V-27.132a2.731,2.731,0,0,1,.693-1.953,2.446,2.446,0,0,1,1.869-.735,2.827,2.827,0,0,1,2.562,1.806l9.324,17.766,9.282-17.766A2.779,2.779,0,0,1,188.538-29.82ZM206.472.336a11.3,11.3,0,0,1-5.523-1.3A9.009,9.009,0,0,1,197.274-4.7a11.851,11.851,0,0,1-1.3-5.67,11.727,11.727,0,0,1,1.3-5.649,9.04,9.04,0,0,1,3.675-3.717,11.3,11.3,0,0,1,5.523-1.3A11.3,11.3,0,0,1,212-19.74a8.908,8.908,0,0,1,3.654,3.717,11.884,11.884,0,0,1,1.281,5.649,12.01,12.01,0,0,1-1.281,5.67A8.879,8.879,0,0,1,212-.966,11.3,11.3,0,0,1,206.472.336Zm-.042-4.074a4.707,4.707,0,0,0,3.906-1.68,7.805,7.805,0,0,0,1.344-4.956,7.82,7.82,0,0,0-1.344-4.935,4.634,4.634,0,0,0-3.864-1.7,4.694,4.694,0,0,0-3.885,1.7,7.733,7.733,0,0,0-1.365,4.935,7.805,7.805,0,0,0,1.344,4.956A4.659,4.659,0,0,0,206.43-3.738ZM238.392-29.82a2.8,2.8,0,0,1,1.932.672,2.247,2.247,0,0,1,.756,1.764V-2.268a2.362,2.362,0,0,1-.714,1.806,2.645,2.645,0,0,1-1.89.672,2.645,2.645,0,0,1-1.89-.672,2.362,2.362,0,0,1-.714-1.806v-1.05A6.575,6.575,0,0,1,233.205-.63a8.049,8.049,0,0,1-3.969.966,8.512,8.512,0,0,1-4.725-1.344,8.912,8.912,0,0,1-3.234-3.8,13.135,13.135,0,0,1-1.155-5.649,12.719,12.719,0,0,1,1.155-5.586,8.749,8.749,0,0,1,3.213-3.7,8.686,8.686,0,0,1,4.746-1.3,8.22,8.22,0,0,1,3.948.924,6.41,6.41,0,0,1,2.646,2.6v-9.954a2.226,2.226,0,0,1,.693-1.7A2.619,2.619,0,0,1,238.392-29.82Zm-7.77,26.082a4.669,4.669,0,0,0,3.885-1.722,7.749,7.749,0,0,0,1.365-4.914,7.657,7.657,0,0,0-1.365-4.893,4.647,4.647,0,0,0-3.843-1.7,4.78,4.78,0,0,0-3.906,1.68,7.411,7.411,0,0,0-1.386,4.83A7.847,7.847,0,0,0,226.758-5.5,4.637,4.637,0,0,0,230.622-3.738Zm32.088-17.22a2.7,2.7,0,0,1,1.932.672,2.362,2.362,0,0,1,.714,1.806v16.3a2.277,2.277,0,0,1-.735,1.764,2.722,2.722,0,0,1-1.911.672,2.534,2.534,0,0,1-1.806-.63,2.246,2.246,0,0,1-.672-1.722V-3.15a6.691,6.691,0,0,1-2.6,2.583,7.527,7.527,0,0,1-3.7.9q-7.56,0-7.56-8.484V-18.48a2.362,2.362,0,0,1,.714-1.806,2.645,2.645,0,0,1,1.89-.672,2.7,2.7,0,0,1,1.932.672,2.362,2.362,0,0,1,.714,1.806V-8.106a4.956,4.956,0,0,0,.882,3.234,3.421,3.421,0,0,0,2.772,1.05,4.521,4.521,0,0,0,3.507-1.449,5.478,5.478,0,0,0,1.323-3.843V-18.48a2.362,2.362,0,0,1,.714-1.806A2.645,2.645,0,0,1,262.71-20.958ZM273.42.252A2.714,2.714,0,0,1,271.551-.4a2.365,2.365,0,0,1-.735-1.869V-27.342a2.3,2.3,0,0,1,.735-1.848,2.77,2.77,0,0,1,1.869-.63,2.852,2.852,0,0,1,1.89.63,2.268,2.268,0,0,1,.756,1.848V-2.268A2.332,2.332,0,0,1,275.31-.4,2.794,2.794,0,0,1,273.42.252Zm16.968-21.294q4.284,0,6.363,2.121t2.079,6.447V-2.226a2.369,2.369,0,0,1-.672,1.785A2.544,2.544,0,0,1,296.31.21a2.457,2.457,0,0,1-1.785-.672,2.346,2.346,0,0,1-.693-1.764V-3.15a5.48,5.48,0,0,1-2.247,2.562,6.74,6.74,0,0,1-3.549.924A8.241,8.241,0,0,1,284.3-.5a6.65,6.65,0,0,1-2.646-2.31,5.837,5.837,0,0,1-.966-3.276,5.19,5.19,0,0,1,1.155-3.57,6.941,6.941,0,0,1,3.759-1.89,34.232,34.232,0,0,1,7.182-.588h1.05V-13.1a4.3,4.3,0,0,0-.882-3,3.753,3.753,0,0,0-2.856-.945,9.063,9.063,0,0,0-2.478.357q-1.26.357-2.982,1.029a4.2,4.2,0,0,1-1.6.546,1.579,1.579,0,0,1-1.239-.546,2.076,2.076,0,0,1-.483-1.428,2.15,2.15,0,0,1,.357-1.239,3.388,3.388,0,0,1,1.2-.987,13.69,13.69,0,0,1,3.507-1.26A18.1,18.1,0,0,1,290.388-21.042Zm-1.3,17.6a4.486,4.486,0,0,0,3.423-1.407,5.089,5.089,0,0,0,1.323-3.633v-.882h-.756a28.973,28.973,0,0,0-4.368.252,4.241,4.241,0,0,0-2.226.882,2.246,2.246,0,0,0-.672,1.722,2.849,2.849,0,0,0,.945,2.2A3.333,3.333,0,0,0,289.086-3.444ZM315.63-20.958a2.261,2.261,0,0,1,1.722.462,2.051,2.051,0,0,1,.63,1.638,2.288,2.288,0,0,1-.546,1.68,3.354,3.354,0,0,1-1.974.714l-1.26.126a5.1,5.1,0,0,0-3.633,1.68,5.494,5.494,0,0,0-1.155,3.57v8.82A2.332,2.332,0,0,1,308.658-.4a2.794,2.794,0,0,1-1.89.651A2.714,2.714,0,0,1,304.9-.4a2.365,2.365,0,0,1-.735-1.869V-18.522a2.248,2.248,0,0,1,.735-1.806,2.709,2.709,0,0,1,1.827-.63,2.526,2.526,0,0,1,1.764.609,2.232,2.232,0,0,1,.672,1.743v1.68a6.216,6.216,0,0,1,2.373-2.856,7.275,7.275,0,0,1,3.507-1.134ZM345.324.378a14.772,14.772,0,0,1-7.5-1.848,12.286,12.286,0,0,1-4.935-5.292,17.82,17.82,0,0,1-1.722-8.064,17.688,17.688,0,0,1,1.722-8.043,12.312,12.312,0,0,1,4.935-5.271,14.772,14.772,0,0,1,7.5-1.848,16.237,16.237,0,0,1,5.208.819,13.532,13.532,0,0,1,4.326,2.373,2.409,2.409,0,0,1,.756.882,2.734,2.734,0,0,1,.21,1.134,2.409,2.409,0,0,1-.5,1.554,1.513,1.513,0,0,1-1.218.63,3.106,3.106,0,0,1-1.722-.588,12.455,12.455,0,0,0-3.36-1.869,10.71,10.71,0,0,0-3.444-.525,8.071,8.071,0,0,0-6.615,2.73q-2.247,2.73-2.247,8.022,0,5.334,2.247,8.064a8.071,8.071,0,0,0,6.615,2.73,9.885,9.885,0,0,0,3.339-.546,16.018,16.018,0,0,0,3.465-1.848,5.877,5.877,0,0,1,.84-.42,2.353,2.353,0,0,1,.882-.168,1.513,1.513,0,0,1,1.218.63,2.409,2.409,0,0,1,.5,1.554,2.769,2.769,0,0,1-.21,1.113,2.352,2.352,0,0,1-.756.9,13.532,13.532,0,0,1-4.326,2.373A16.237,16.237,0,0,1,345.324.378Zm41.538-30.2a2.515,2.515,0,0,1,1.89.735,2.683,2.683,0,0,1,.714,1.953V-2.268a2.5,2.5,0,0,1-.672,1.848,2.385,2.385,0,0,1-1.764.672,2.246,2.246,0,0,1-1.722-.672,2.6,2.6,0,0,1-.63-1.848v-17.3l-7.14,13.524a4.17,4.17,0,0,1-1.092,1.365,2.245,2.245,0,0,1-1.386.441,2.322,2.322,0,0,1-1.386-.42,3.862,3.862,0,0,1-1.092-1.386L365.4-19.362V-2.268a2.56,2.56,0,0,1-.651,1.827,2.278,2.278,0,0,1-1.743.693,2.246,2.246,0,0,1-1.722-.672,2.6,2.6,0,0,1-.63-1.848V-27.132a2.731,2.731,0,0,1,.693-1.953,2.446,2.446,0,0,1,1.869-.735,2.827,2.827,0,0,1,2.562,1.806L375.1-10.248l9.282-17.766A2.779,2.779,0,0,1,386.862-29.82ZM406.14.378a21.208,21.208,0,0,1-6.111-.861,13.453,13.453,0,0,1-4.683-2.331,2.36,2.36,0,0,1-.966-2.016,2.368,2.368,0,0,1,.525-1.533,1.555,1.555,0,0,1,1.239-.651,3.412,3.412,0,0,1,1.722.588,12.6,12.6,0,0,0,3.78,1.89,15.263,15.263,0,0,0,4.368.588,8.6,8.6,0,0,0,4.7-1.071,3.505,3.505,0,0,0,1.638-3.129,2.691,2.691,0,0,0-1.533-2.457,20.3,20.3,0,0,0-5.1-1.659,30.228,30.228,0,0,1-6.006-1.848,8.48,8.48,0,0,1-3.486-2.688,6.953,6.953,0,0,1-1.176-4.158,7.824,7.824,0,0,1,1.47-4.662,9.684,9.684,0,0,1,4.1-3.213,14.5,14.5,0,0,1,5.9-1.155A14.648,14.648,0,0,1,416.3-26.8a3.155,3.155,0,0,1,.777.9,2.385,2.385,0,0,1,.231,1.113,2.368,2.368,0,0,1-.525,1.533,1.555,1.555,0,0,1-1.239.651,2.319,2.319,0,0,1-.777-.126,6.226,6.226,0,0,1-.945-.462,14.191,14.191,0,0,0-3.339-1.869,11.32,11.32,0,0,0-3.969-.609A7.784,7.784,0,0,0,402-24.507a3.7,3.7,0,0,0-1.659,3.213,2.948,2.948,0,0,0,1.47,2.646,17.229,17.229,0,0,0,5,1.722,33.629,33.629,0,0,1,6.069,1.869,9,9,0,0,1,3.57,2.625,6.311,6.311,0,0,1,1.239,3.99,7.622,7.622,0,0,1-1.449,4.6,9.444,9.444,0,0,1-4.074,3.108A15.324,15.324,0,0,1,406.14.378Z" transform="translate(842 606)" fill="#a0aec0"/></g></svg>