<svg xmlns="http://www.w3.org/2000/svg" xmlns:xlink="http://www.w3.org/1999/xlink" width="748.227" height="427.592" viewBox="0 0 748.227 427.592"><defs><clipPath id="a"><path d="M5.651,0H98.568a5.652,5.652,0,0,1,5.652,5.652v73.6A5.652,5.652,0,0,1,98.568,84.9H5.651A5.651,5.651,0,0,1,0,79.248V5.651A5.651,5.651,0,0,1,5.651,0Z" fill="none"/></clipPath></defs><g transform="translate(-210.613 -144.723)"><path d="M928.361,424.551c-12.746-17.981-30.544-33.5-35.977-54.862-5.414-21.28,2.713-43.318,8.882-64.392s9.951-45.522-2.542-63.579c-16.921-24.457-53.268-23.527-82.022-15.932s-59.78,19.1-87.052,7.236c-32.11-13.963-44.067-53.983-72.132-74.922-31.455-23.468-81.822-15.05-103.936,17.373-10.594,15.532-15.081,34.962-27.567,49.018-16.9,19.019-44.711,24-70.131,23s-50.751-6.757-76.08-4.4-52.093,15.48-60.348,39.541c-6.3,18.368-.482,38.659,7.607,56.311s18.566,34.6,22.116,53.69-1.98,41.715-19,51.065c-19.794,10.875-44.935-.4-66.769,5.376-24.626,6.517-39.164,35.377-34.184,60.362s25.869,44.775,49.765,53.6,50.357,8.071,75.433,3.575l424.205,4.529c29-1.352,51.348,2.134,78.651.885s55.4-10.967,73.049-31.834C957.142,508.51,952.37,458.418,928.361,424.551Z" transform="translate(10.353 0)" fill="#a0aec0" opacity="0.1"/><g transform="translate(225.353 162.945)"><g transform="translate(0 24.254)" opacity="0.29"><path d="M375.826,171.49l69.69,3.686c27.265,1.442,54.967,2.967,80.722,12.035S575.992,214.1,586,239.5s2.282,58.468-21.442,71.983" transform="translate(-128.396 -171.49)" fill="none" stroke="#4e01d4" stroke-linecap="round" stroke-miterlimit="10" stroke-width="0.951" stroke-dasharray="4.509"/><path d="M234.752,319.605c-18.4,17.06-19.122,48.047-5.364,69.033s38.883,32.507,63.86,34.925,50.03-3.183,74.092-10.308a581.611,581.611,0,0,0,131.322-57.314" transform="translate(-219.902 -84.567)" fill="none" stroke="#4e01d4" stroke-linecap="round" stroke-miterlimit="10" stroke-width="0.951" stroke-dasharray="4.509"/><path d="M758.041,338.379c-11.482,19.763-32.567,32.716-54.794,38.045s-45.586,3.718-68.062-.43A309.317,309.317,0,0,1,549.949,346.9c-13.844-7.125-27.481-15.419-42.794-18.231-25.014-4.592-52.262,7.634-65.461,29.371" transform="translate(-89.741 -79.81)" fill="none" stroke="#4e01d4" stroke-linecap="round" stroke-miterlimit="10" stroke-width="0.951" stroke-dasharray="4.509"/><path d="M578.548,186.511c25.512-13.868,58.241-13.4,83.345,1.195s41.709,42.8,42.287,71.831-14.893,57.876-39.4,73.456c-31.836,20.24-72.6,17.221-110.141,13.488" transform="translate(-23.457 -168.593)" fill="none" stroke="#4e01d4" stroke-linecap="round" stroke-miterlimit="10" stroke-width="0.951" stroke-dasharray="4.509"/></g><g transform="translate(59.017)"><path d="M539.076,226.074a10.482,10.482,0,0,0,.6,1.449l-1.982,1.984,4.675,4.675,1.982-1.984a10.48,10.48,0,0,0,1.449.6v2.8h6.611v-2.8a10.476,10.476,0,0,0,1.449-.6l1.982,1.984,4.675-4.675-1.982-1.984a10.5,10.5,0,0,0,.6-1.449h2.8v-6.611h-2.8a10.5,10.5,0,0,0-.6-1.449l1.982-1.982-4.675-4.675-1.982,1.984a10.483,10.483,0,0,0-1.449-.606v-2.8H545.8v2.8a10.487,10.487,0,0,0-1.449.606l-1.982-1.984-4.675,4.675,1.982,1.982a10.48,10.48,0,0,0-.6,1.449h-2.8v6.611Zm3.374-3.305a6.66,6.66,0,1,1,6.66,6.66A6.66,6.66,0,0,1,542.45,222.769Z" transform="translate(-93.252 -124.674)" fill="#fff" opacity="0.63"/><path d="M302.42,360.4a12.046,12.046,0,0,0,.69,1.655l-2.263,2.263,5.337,5.337,2.263-2.264a11.861,11.861,0,0,0,1.655.692v3.194h7.547V368.08a11.855,11.855,0,0,0,1.655-.692l2.263,2.264,5.337-5.337-2.263-2.263a12.046,12.046,0,0,0,.69-1.655h3.2v-7.547h-3.2a12.049,12.049,0,0,0-.69-1.655l2.263-2.263-5.337-5.337-2.263,2.263a12.035,12.035,0,0,0-1.655-.69v-3.2H310.1v3.2a12.041,12.041,0,0,0-1.655.69l-2.263-2.263-5.337,5.337,2.263,2.263a12.049,12.049,0,0,0-.69,1.655h-3.194V360.4Zm3.851-3.774a7.6,7.6,0,1,1,7.6,7.6A7.6,7.6,0,0,1,306.272,356.624Z" transform="translate(-232.367 -47.187)" fill="#fff" opacity="0.63"/><path d="M502.261,192.334a5.351,5.351,0,0,0,.317.762l-1.041,1.041,2.453,2.453,1.041-1.041a5.611,5.611,0,0,0,.76.317v1.469h3.47v-1.469a5.355,5.355,0,0,0,.762-.317l1.039,1.041,2.455-2.453-1.041-1.041a5.35,5.35,0,0,0,.317-.762h1.469v-3.47h-1.469a5.33,5.33,0,0,0-.317-.76l1.041-1.041-2.455-2.453-1.039,1.041a5.549,5.549,0,0,0-.762-.319v-1.469h-3.47v1.469a5.615,5.615,0,0,0-.76.319l-1.041-1.041-2.453,2.453,1.041,1.041a5.33,5.33,0,0,0-.317.76h-1.469v3.47Zm1.769-1.734a3.5,3.5,0,1,1,3.5,3.5A3.5,3.5,0,0,1,504.031,190.6Z" transform="translate(-114.076 -139.976)" fill="#fff" opacity="0.63"/><path d="M295.38,242.815a10.044,10.044,0,0,0-.279,1.474l-2.625.541,1.277,6.189,2.625-.541a9.94,9.94,0,0,0,.839,1.244l-1.471,2.236,5.28,3.472L302.5,255.2a9.839,9.839,0,0,0,1.474.278l.541,2.625,6.189-1.276-.541-2.625a10.3,10.3,0,0,0,1.244-.839l2.234,1.469,3.474-5.278-2.236-1.471a10.055,10.055,0,0,0,.279-1.474l2.625-.543-1.277-6.189-2.625.543a9.82,9.82,0,0,0-.839-1.244l1.471-2.236-5.279-3.474-1.469,2.236a10.074,10.074,0,0,0-1.476-.279l-.541-2.625-6.189,1.277.541,2.625a9.939,9.939,0,0,0-1.244.839l-2.234-1.471-3.474,5.28Zm4.429-.868a6.367,6.367,0,1,1,1.82,8.818A6.367,6.367,0,0,1,299.809,241.947Zm27.012,9.032a6.443,6.443,0,0,0-.176.927l-1.649.341.8,3.891,1.65-.34a6.42,6.42,0,0,0,.528.781l-.925,1.406,3.32,2.183.925-1.4a6.228,6.228,0,0,0,.927.175l.341,1.65,3.891-.8-.341-1.65a5.986,5.986,0,0,0,.782-.528l1.406.925,2.184-3.32-1.4-.924a6.454,6.454,0,0,0,.175-.928l1.65-.34-.8-3.891-1.65.34a6.208,6.208,0,0,0-.528-.782l.925-1.406-3.32-2.184-.924,1.406a6.244,6.244,0,0,0-.928-.175l-.34-1.65-3.893.8.341,1.652a6.362,6.362,0,0,0-.782.527l-1.406-.925-2.184,3.32Zm2.785-.546a4,4,0,1,1,1.144,5.544A4,4,0,0,1,329.605,250.434Z" transform="translate(-236.328 -111.26)" fill="#fff" opacity="0.63"/><path d="M684.423,387.019a13.221,13.221,0,0,0,1.125-1.65l3.486.738,1.736-8.223-3.486-.736a13.462,13.462,0,0,0-.362-1.963l2.982-1.942-4.586-7.043-2.982,1.942a13.317,13.317,0,0,0-1.65-1.123l.736-3.488-8.222-1.736-.736,3.486a13.468,13.468,0,0,0-1.963.362l-1.942-2.982-7.042,4.586,1.942,2.982a13.345,13.345,0,0,0-1.125,1.65l-3.486-.736-1.736,8.221,3.486.736a13.5,13.5,0,0,0,.362,1.965l-2.982,1.941,4.586,7.042,2.982-1.942a13.223,13.223,0,0,0,1.65,1.125l-.738,3.486,8.223,1.736.736-3.486a13.465,13.465,0,0,0,1.963-.362l1.942,2.982L686.365,390Zm-5.862-1.3A8.468,8.468,0,1,1,681.035,374,8.468,8.468,0,0,1,678.561,385.72Zm-28.116-25.38a8.425,8.425,0,0,0,.706-1.038l2.193.463,1.092-5.17-2.193-.463a8.273,8.273,0,0,0-.227-1.235l1.876-1.22-2.885-4.427-1.874,1.22a8.358,8.358,0,0,0-1.038-.706l.463-2.193-5.17-1.092-.463,2.193a8.275,8.275,0,0,0-1.234.227l-1.22-1.876-4.429,2.885,1.222,1.874a8.387,8.387,0,0,0-.708,1.038l-2.191-.463-1.092,5.17,2.192.463a8.277,8.277,0,0,0,.229,1.234l-1.876,1.22,2.883,4.429,1.876-1.222a8.214,8.214,0,0,0,1.036.706l-.462,2.193,5.17,1.092.463-2.193a8.052,8.052,0,0,0,1.233-.227l1.222,1.876,4.427-2.885Zm-3.686-.817a5.324,5.324,0,1,1,1.557-7.366A5.323,5.323,0,0,1,646.759,359.522Z" transform="translate(-36.329 -45.716)" fill="#fff" opacity="0.63"/><g transform="translate(334.361)"><path d="M467.8,168.231a12.025,12.025,0,1,0,12.025-12.025A12.024,12.024,0,0,0,467.8,168.231Z" transform="translate(-467.799 -156.206)" fill="#fff"/><path d="M478.357,158.032a26.513,26.513,0,0,0-.755,4.564q-.2,2.283-.17,4.564l.925-.927c-1.343.021-2.687.075-4.029.224a25.139,25.139,0,0,0-4.027.7,25.317,25.317,0,0,0,4.027.7c1.342.149,2.687.2,4.029.222l.914.014.011-.939q.029-2.283-.17-4.564A26.518,26.518,0,0,0,478.357,158.032Z" transform="translate(-466.331 -155.134)" fill="#00ebd5"/></g><g transform="translate(566.813 85.025)"><circle cx="15.77" cy="15.77" r="15.77" transform="translate(0 31.304) rotate(-82.982)" fill="#fff"/><path d="M629.536,228.185l4.429,7.622a1.139,1.139,0,0,0,1.971-1.144l-4.43-7.623a7.774,7.774,0,1,0-1.969,1.146Zm-7.619-4.434a5.5,5.5,0,1,1,7.516,1.99A5.5,5.5,0,0,1,621.918,223.751Z" transform="translate(-611.579 -207.776)" fill="#ff7171"/></g><g transform="translate(0 299.556)"><path d="M257.093,362.36a17.382,17.382,0,1,0,17.381-17.381A17.382,17.382,0,0,0,257.093,362.36Z" transform="translate(-257.093 -344.979)" fill="#fff"/><path d="M267.03,367v.938h-.2v3.9h8.414v-3.9h-.2V367a9.286,9.286,0,0,1,2.274-5.832,7.976,7.976,0,0,0,1.684-6.5,8.09,8.09,0,1,0-14.229,6.524A9.174,9.174,0,0,1,267.03,367Zm6.338,0v.344h-.816c.825-2.842,1.752-6.724.9-7.436a1.087,1.087,0,0,0-1.147-.157,1.24,1.24,0,0,0-.14.067,1.185,1.185,0,0,0-1.046-.6h0a1.436,1.436,0,0,0-1.109.587,1.193,1.193,0,0,0-.868-.133.97.97,0,0,0-.573.478c-.692,1.246.374,5.2.985,7.2h-.851V367a10.827,10.827,0,0,0-2.636-6.874,6.265,6.265,0,0,1-1.446-4.027,6.414,6.414,0,0,1,12.725-1.144,6.321,6.321,0,0,1-1.33,5.154A10.932,10.932,0,0,0,273.368,367Zm-2.923.344c-.774-2.493-1.6-5.962-1.119-6.835a.182.182,0,0,1,.073-.083.668.668,0,0,1,.286.117,1.338,1.338,0,0,0,.219,1.192.676.676,0,0,0,.686.162.708.708,0,0,0,.473-.966,1.865,1.865,0,0,0-.394-.62.615.615,0,0,1,.49-.3c.1,0,.2.114.255.184a1.358,1.358,0,0,1,.109.186,1.493,1.493,0,0,0-.348.824.613.613,0,0,0,.363.6.666.666,0,0,0,.736-.087,1.187,1.187,0,0,0,.2-1.135.924.924,0,0,1,.152-.089c.162-.07.216-.022.257.013.355.47-.327,3.761-1.219,6.843Z" transform="translate(-253.658 -343.2)" fill="#f7c90b"/></g></g><g transform="translate(6.722 6.603)"><g transform="translate(517.887 25.315)"><path d="M550.5,200.258c.676-.835,26.064-23.938,26.064-23.938l4.459,2.85Z" transform="translate(-550.498 -176.32)" fill="#b6b9ff"/><path d="M581.021,178.116l5.63,13.743L550.5,199.2Z" transform="translate(-550.498 -175.266)" fill="#7474e2"/><path d="M586.651,190.732,550.5,198.078l35.96-18.042Z" transform="translate(-550.498 -174.14)" fill="#9a9ae5"/><path d="M586.458,180.035,550.5,198.078l43.337-12.763Z" transform="translate(-550.498 -174.14)" fill="#b6b9ff"/></g><g transform="translate(652.843 260.724)"><path d="M670.511,325.883c-.93-.174-31.166-1.214-31.166-1.214l-1.369,4.459Z" transform="translate(-634.116 -324.669)" fill="#b6b9ff"/><path d="M637.976,328.679l4.058,12.444,28.478-15.689Z" transform="translate(-634.117 -324.22)" fill="#7474e2"/><path d="M642.742,341.123l28.478-15.689-34.451,8.394Z" transform="translate(-634.825 -324.22)" fill="#9a9ae5"/><path d="M637.488,333.827l34.451-8.394-36.395,16.148Z" transform="translate(-635.544 -324.22)" fill="#b6b9ff"/></g><g transform="translate(222.063)"><path d="M388.321,160.367C388,161.01,385.5,170.5,385.5,170.5L364.077,182.68Z" transform="translate(-364.077 -160.367)" fill="#b6b9ff"/><path d="M392.41,174.5l-6.911-7.748-21.421,12.181Z" transform="translate(-364.077 -156.62)" fill="#7474e2"/><path d="M392.41,171.825l-9.339-.515-18.993,4.948Z" transform="translate(-364.077 -153.945)" fill="#9a9ae5"/><path d="M383.07,171.31l-3.4,11.641-15.593-6.693Z" transform="translate(-364.077 -153.945)" fill="#b6b9ff"/></g><g transform="translate(0 232.389)"><path d="M224.138,306.813c.792.62,9.613,11.138,9.613,11.138l34.371,2.644Z" transform="translate(-224.138 -306.813)" fill="#b6b9ff"/><path d="M227.6,327.759l4.126-13.927,34.372,2.643Z" transform="translate(-222.109 -302.694)" fill="#7474e2"/><path d="M227.6,326.782l11.512-6.22,26.986-5.064Z" transform="translate(-222.109 -301.716)" fill="#9a9ae5"/><path d="M234.85,320.562l11.244,12.7L261.836,315.5Z" transform="translate(-217.851 -301.716)" fill="#b6b9ff"/></g></g><g transform="translate(180.612 124.299)"><rect width="426.88" height="232.002" rx="5.658" transform="translate(434.428 242.568) rotate(180)" fill="#cbc2ff" opacity="0.5" style="mix-blend-mode:multiply;isolation:isolate"/><path d="M5.658,0H421.222a5.658,5.658,0,0,1,5.658,5.658V226.343A5.658,5.658,0,0,1,421.222,232H5.658A5.658,5.658,0,0,1,0,226.343V5.658A5.658,5.658,0,0,1,5.658,0Z" transform="translate(426.88 232.002) rotate(180)" fill="#4a5568"/><path d="M5.62,0H421.26a5.62,5.62,0,0,1,5.62,5.62V216.431a0,0,0,0,1,0,0H0a0,0,0,0,1,0,0V5.62A5.62,5.62,0,0,1,5.62,0Z" transform="translate(426.88 232.562) rotate(180)" fill="#fff"/><g transform="translate(11.052 5.401)"><path d="M351.081,240.469a2.529,2.529,0,1,0,2.529-2.529A2.529,2.529,0,0,0,351.081,240.469Z" transform="translate(-334.582 -237.94)" fill="#ff005c"/><path d="M348.411,237.94a2.529,2.529,0,1,1-2.529,2.529A2.529,2.529,0,0,1,348.411,237.94Z" transform="translate(-337.634 -237.94)" fill="#ffc136"/><path d="M343.214,237.94a2.529,2.529,0,1,1-2.53,2.529A2.529,2.529,0,0,1,343.214,237.94Z" transform="translate(-340.684 -237.94)" fill="#00ead9"/></g><g transform="translate(26.708 41.299)"><g transform="translate(290.416)"><path d="M616.611,302.092a41.489,41.489,0,1,0-2.809,15.035A41.317,41.317,0,0,0,616.611,302.092Zm-17.152,0a24.034,24.034,0,0,1-1.707,8.959,24.342,24.342,0,0,1-22.67,15.42c-.211,0-.421-.013-.619-.025A24.369,24.369,0,1,1,596.18,289.89,24.087,24.087,0,0,1,599.459,302.092Z" transform="translate(-533.563 -260.562)" fill="#e4e5fb" opacity="0.45"/><path d="M575.082,339.642V322.5c-.211,0-.421-.013-.619-.025a24.357,24.357,0,0,1-15.8-42.358l-11.41-12.8a41.513,41.513,0,0,0,27.832,72.319Z" transform="translate(-533.563 -256.594)" fill="#e4e5fb"/><path d="M593.452,294.495a41.38,41.38,0,0,0-5.686-20.991l-14.745,8.79a24.37,24.37,0,0,1,1.581,21.159l16.045,6.078A41.4,41.4,0,0,0,593.452,294.495Z" transform="translate(-510.407 -252.967)" fill="#9a9ae5"/><path d="M605.862,281.1a41.52,41.52,0,0,0-63.676-9.808L553.6,284.081a24.358,24.358,0,0,1,37.513,5.806Z" transform="translate(-528.503 -260.561)" fill="#b6b9ff"/></g><path d="M431.464,267.313H566.629a5.028,5.028,0,0,1,5.029,5.029h0a5.029,5.029,0,0,1-5.029,5.029H431.464a5.029,5.029,0,0,1-5.029-5.029h0A5.028,5.028,0,0,1,431.464,267.313Zm0,27.251H566.629a5.03,5.03,0,0,0,5.029-5.03h0a5.029,5.029,0,0,0-5.029-5.029H431.464a5.029,5.029,0,0,0-5.029,5.029h0A5.03,5.03,0,0,0,431.464,294.564Zm0,17.192H566.629a5.03,5.03,0,0,0,5.029-5.03h0a5.029,5.029,0,0,0-5.029-5.029H431.464a5.029,5.029,0,0,0-5.029,5.029h0A5.03,5.03,0,0,0,431.464,311.756Zm0,17.192H566.629a5.029,5.029,0,0,0,5.029-5.029v0a5.029,5.029,0,0,0-5.029-5.029H431.464a5.029,5.029,0,0,0-5.029,5.03h0A5.029,5.029,0,0,0,431.464,328.948Z" transform="translate(-306.016 -256.6)" fill="#e4e5fb"/><path d="M350.55,327.888v-.149a4.943,4.943,0,0,1,4.942-4.956h94.337a4.943,4.943,0,0,1,4.941,4.954v.151a4.954,4.954,0,0,1-4.954,4.954H355.5A4.955,4.955,0,0,1,350.55,327.888Zm99.266,12.089H355.5a4.954,4.954,0,0,0-4.954,4.954v.149a4.954,4.954,0,0,0,4.954,4.954h94.312a4.954,4.954,0,0,0,4.954-4.954v-.149A4.954,4.954,0,0,0,449.816,339.977ZM350.55,362.123v.149a4.955,4.955,0,0,0,4.954,4.956h94.312a4.955,4.955,0,0,0,4.954-4.956v-.149a4.955,4.955,0,0,0-4.954-4.954H355.5A4.955,4.955,0,0,0,350.55,362.123Zm5.03,22.3H449.74a5.03,5.03,0,0,0,5.03-5.03h0a5.029,5.029,0,0,0-5.03-5.029H355.58a5.029,5.029,0,0,0-5.03,5.029h0A5.03,5.03,0,0,0,355.58,384.42Z" transform="translate(-350.55 -224.047)" fill="#e4e5fb"/><rect width="92.752" height="68.715" rx="8.107" transform="translate(373.838 164.515) rotate(180)" fill="#e4e5fb"/><g transform="translate(0 4.087)"><g clip-path="url(#a)"><path d="M5.651,0H98.568a5.652,5.652,0,0,1,5.652,5.652v73.6A5.652,5.652,0,0,1,98.568,84.9H5.651A5.651,5.651,0,0,1,0,79.248V5.651A5.651,5.651,0,0,1,5.651,0Z" fill="#e4e5fb"/><path d="M368.788,320.256l50.222-26.243a8.688,8.688,0,0,1,8.734.4l46.693,30.146v8.62H368.433Z" transform="translate(-340.056 -245.598)" fill="#9a9ae5"/><path d="M348.322,315.287l33.513-27.061a8.686,8.686,0,0,1,10.508-.308l66.5,47.542H346.3Z" transform="translate(-353.043 -249.546)" fill="#b6b9ff"/><circle cx="9.776" cy="9.776" r="9.776" transform="translate(55.068 12.371)" fill="#b6b9ff"/></g></g><path d="M503.3,351.708h9.389a4.936,4.936,0,0,1,4.935,4.935V386.63a4.935,4.935,0,0,1-4.935,4.935H503.3a4.935,4.935,0,0,1-4.935-4.935V356.643A4.936,4.936,0,0,1,503.3,351.708Zm29.16-12.184h9.894a4.682,4.682,0,0,1,4.683,4.683v42.675a4.682,4.682,0,0,1-4.683,4.683h-9.894a4.682,4.682,0,0,1-4.683-4.683V344.207A4.682,4.682,0,0,1,532.462,339.524Zm-64.4,3.429v43.918a4.7,4.7,0,0,0,4.7,4.694h9.869a4.7,4.7,0,0,0,4.7-4.694V342.953a4.7,4.7,0,0,0-4.7-4.7h-9.869A4.7,4.7,0,0,0,468.064,342.953Zm-15.737-25.61h-9.87a4.7,4.7,0,0,0-4.7,4.7v64.833a4.7,4.7,0,0,0,4.7,4.694h9.87a4.7,4.7,0,0,0,4.694-4.694V322.039A4.7,4.7,0,0,0,452.327,317.343Z" transform="translate(-299.37 -227.24)" fill="#e4e5fb"/><path d="M550.5,366.583V333.354a3.347,3.347,0,0,1,5.184-2.8l24.979,16.4a3.346,3.346,0,0,1,.033,5.573l-24.979,16.824A3.347,3.347,0,0,1,550.5,366.583Z" transform="translate(-233.209 -219.811)" fill="#fff"/></g></g><path d="M814.095,416.076H301.266a3.55,3.55,0,0,1-3.551-3.55h0a3.551,3.551,0,0,1,3.551-3.551H814.095a3.55,3.55,0,0,1,3.55,3.551h0A3.549,3.549,0,0,1,814.095,416.076Z" transform="translate(-174.236 -7.866)" fill="#2d3748"/><g transform="translate(288.302 60.012)"><rect width="97.906" height="68.268" rx="9.45" transform="translate(6.209 3.949)" fill="#cbc2ff" opacity="0.5" style="mix-blend-mode:multiply;isolation:isolate"/><rect width="97.906" height="68.268" rx="9.45" fill="#fff"/><path d="M9.308,0H88.6a9.308,9.308,0,0,1,9.308,9.308v5.983a0,0,0,0,1,0,0H0a0,0,0,0,1,0,0V9.308A9.308,9.308,0,0,1,9.308,0Z" fill="#4a5568"/><g transform="translate(7.786 6.626)"><path d="M409.655,199.784a1.583,1.583,0,1,1-1.582-1.584A1.581,1.581,0,0,1,409.655,199.784Z" transform="translate(-406.489 -198.2)" fill="#ff005c"/><path d="M414.085,199.784A1.583,1.583,0,1,1,412.5,198.2,1.581,1.581,0,0,1,414.085,199.784Z" transform="translate(-403.889 -198.2)" fill="#ffc136"/><path d="M418.515,199.784a1.583,1.583,0,1,1-1.582-1.584A1.582,1.582,0,0,1,418.515,199.784Z" transform="translate(-401.289 -198.2)" fill="#00ead9"/></g><g transform="translate(7.2 20.243)"><rect width="83.507" height="2.852" rx="0.868" transform="translate(83.507 39.422) rotate(180)" fill="#e4e5fb"/><rect width="83.507" height="2.852" rx="0.868" transform="translate(83.507 31.598) rotate(180)" fill="#9594f9"/><rect width="83.507" height="2.852" rx="0.868" transform="translate(83.507 23.774) rotate(180)" fill="#9594f9"/><path d="M451.013,215.747a8.967,8.967,0,1,1-8.966-8.966A8.966,8.966,0,0,1,451.013,215.747Zm13.39-8.966a8.967,8.967,0,1,0,8.967,8.966A8.965,8.965,0,0,0,464.4,206.781Z" transform="translate(-390.298 -206.781)" fill="#9594f9"/></g></g><g transform="translate(322.576 332.841)"><rect width="97.906" height="68.268" rx="9.45" transform="translate(5.551)" fill="#cbc2ff" opacity="0.5" style="mix-blend-mode:multiply;isolation:isolate"/><rect width="97.906" height="68.268" rx="9.45" fill="#fff"/><path d="M9.308,0H88.6a9.308,9.308,0,0,1,9.308,9.308v5.982a0,0,0,0,1,0,0H0a0,0,0,0,1,0,0V9.308A9.308,9.308,0,0,1,9.308,0Z" fill="#4a5568"/><g transform="translate(7.786 6.626)"><path d="M431.254,371.714a1.583,1.583,0,1,1-1.582-1.584A1.583,1.583,0,0,1,431.254,371.714Z" transform="translate(-428.088 -370.13)" fill="#ff005c"/><path d="M435.684,371.714a1.583,1.583,0,1,1-1.582-1.584A1.583,1.583,0,0,1,435.684,371.714Z" transform="translate(-425.488 -370.13)" fill="#ffc136"/><path d="M440.114,371.714a1.583,1.583,0,1,1-1.584-1.584A1.584,1.584,0,0,1,440.114,371.714Z" transform="translate(-422.888 -370.13)" fill="#00ead9"/></g><g transform="translate(7.2 22.839)"><rect width="83.507" height="2.852" rx="0.868" transform="translate(83.507 36.826) rotate(180)" fill="#e4e5fb"/><rect width="83.507" height="2.852" rx="0.868" transform="translate(83.507 29.002) rotate(180)" fill="#e4e5fb"/><rect width="83.507" height="2.852" rx="0.868" transform="translate(83.507 21.179) rotate(180)" fill="#00ead9"/><circle cx="7.531" cy="7.531" r="7.531" transform="translate(68.445 0)" fill="#9594f9"/><path d="M472.869,387.878a7.531,7.531,0,1,1-7.531-7.531A7.532,7.532,0,0,1,472.869,387.878Z" transform="translate(-410.061 -380.347)" fill="#9594f9"/><circle cx="7.531" cy="7.531" r="7.531" transform="translate(27.047 0)" fill="#ffc136"/></g></g><g transform="translate(95.213 186.499)"><rect width="97.906" height="68.268" rx="9.45" transform="translate(5.551 3.767)" fill="#cbc2ff" opacity="0.5" style="mix-blend-mode:multiply;isolation:isolate"/><rect width="97.906" height="68.268" rx="9.45" fill="#fff"/><path d="M9.308,0H88.6a9.308,9.308,0,0,1,9.308,9.308v5.982a0,0,0,0,1,0,0H0a0,0,0,0,1,0,0V9.308A9.308,9.308,0,0,1,9.308,0Z" fill="#4a5568"/><g transform="translate(7.786 6.627)"><path d="M287.976,279.491a1.584,1.584,0,1,1-1.584-1.582A1.584,1.584,0,0,1,287.976,279.491Z" transform="translate(-284.809 -277.909)" fill="#ff005c"/><path d="M292.4,279.491a1.583,1.583,0,1,1-1.582-1.582A1.583,1.583,0,0,1,292.4,279.491Z" transform="translate(-282.209 -277.909)" fill="#ffc136"/><path d="M296.835,279.491a1.583,1.583,0,1,1-1.582-1.582A1.583,1.583,0,0,1,296.835,279.491Z" transform="translate(-279.609 -277.909)" fill="#00ead9"/></g><g transform="translate(7.2 22.839)"><rect width="83.507" height="2.852" rx="0.868" transform="translate(83.507 36.826) rotate(180)" fill="#e4e5fb"/><rect width="83.507" height="2.852" rx="0.868" transform="translate(83.507 29.002) rotate(180)" fill="#e4e5fb"/><rect width="83.507" height="2.852" rx="0.868" transform="translate(83.507 21.178) rotate(180)" fill="#00ead9"/><circle cx="7.531" cy="7.531" r="7.531" transform="translate(68.444)" fill="#9594f9"/><circle cx="7.531" cy="7.531" r="7.531" transform="translate(47.746)" fill="#9594f9"/><circle cx="7.531" cy="7.531" r="7.531" transform="translate(27.047)" fill="#ffc136"/></g></g><g transform="translate(161.068 300.998)"><path d="M389.963,391.587c-15.556-15.12-4.61-31.977-15.651-42.285-3.927-3.669-9.661-4.124-14.6-2.577-22.527,7.057-38.308,30.733-38.308,54.927,0,13.7,3.531,34.481,12.035,44.346h94.5c5.7-7.236,11.414-19.871,13.936-31.2C444.359,403.6,414.861,415.788,389.963,391.587Z" transform="translate(-321.403 -345.888)" fill="#7474e2"/><path d="M351.556,394.8c-9.236-13.672-8.679-38.684,6.6-48.061-21.7,7.638-36.755,30.774-36.755,54.407,0,13.7,3.531,34.481,12.035,44.346h94.5c5.821-5.768,11.738-20.128,13.936-31.2C431.829,417.856,374.544,428.831,351.556,394.8Z" transform="translate(-321.403 -345.386)" fill="#b6b9ff"/></g><g transform="translate(213.688 288.99)"><path d="M396.476,384.719c6.384-.63,10.415.219,10.161,2.948-.386,4.162-14.766,5.054-16.954.995C388.884,387.182,389.771,385.381,396.476,384.719Z" transform="translate(-334.096 -311.207)" fill="#11025f"/><path d="M363.869,379.664c-3.686,10.589-2.658,14.366,5.873,17.233,5,1.679,18.55,2,28.03,1.408,24.507-1.527,19.956-17.064,7.5-16.343-2.536.146-5.1,2-11.011.414s-14.574-4.53-14.574-4.53Z" transform="translate(-350.286 -315.125)" fill="#3700bf"/><g transform="translate(18.198 23.32)"><path d="M371.4,356.244a5.772,5.772,0,0,0-4.08,4.237c-1.163,7.857.273,27.488,1.739,30.131,2.015,3.634,24.573,5.194,26.651,5.34a11.379,11.379,0,0,0,4.315-1,3.473,3.473,0,0,1,2.379-.076,5.354,5.354,0,0,0,3.605.144c.86-.459-3.564-3.624-5.692-4.042-1.242-.244-4.948.5-6.081.936-.935.357-16.732-4.018-18.363-6.625-1.425-2.279.717-21.081-.355-26.007C374.479,354.494,371.4,356.244,371.4,356.244Z" transform="translate(-365.522 -351.305)" fill="#c6c9fa"/><path d="M374.678,353.021c-7.336-.282-8.647,14.824-8.647,14.824,2.774,2.093,6.774,2.871,11.4,2.974C377.21,367.047,381.289,353.276,374.678,353.021Z" transform="translate(-366.031 -353.017)" fill="#00ebd5"/></g><path d="M381.645,381.807s20.251,2.455,23.506,5.432c1.155,1.055,1.961,5.53-1.433,6.143a179.02,179.02,0,0,1-22.776,2.872Z" transform="translate(-339.082 -312.8)" fill="#430cbc"/><path d="M403.022,390.693c0,9.818-12.761,9.54-19.886,9.54s-27.472,1.381-26.618-17.586c.647-14.369,18.571,1.822,25.7,1.822S403.022,382.868,403.022,390.693Z" transform="translate(-353.431 -315.796)" fill="#4e01d4"/><path d="M382.351,354.657c-5.662-4.818-21.669-5.027-24.92,9.759-5.375,24.439-1.546,31.861-1.546,31.861,9.732,2.282,31.893,4.818,38.459,1a36.864,36.864,0,0,1-6.7-15.823C386.257,373.541,386.929,358.553,382.351,354.657Z" transform="translate(-354.563 -330.452)" fill="#00ebd5"/><g transform="translate(1.322 23.32)"><path d="M360.769,356.244a5.77,5.77,0,0,0-4.078,4.237c-1.165,7.857.271,27.488,1.738,30.131,2.015,3.634,24.574,5.194,26.651,5.34a11.372,11.372,0,0,0,4.315-1,3.474,3.474,0,0,1,2.379-.076,5.354,5.354,0,0,0,3.605.144c.862-.459-3.564-3.624-5.69-4.042-1.242-.244-4.949.5-6.081.936-.936.357-16.733-4.018-18.365-6.625-1.425-2.279.719-21.081-.354-26.007C363.844,354.494,360.769,356.244,360.769,356.244Z" transform="translate(-354.886 -351.305)" fill="#c6c9fa"/><path d="M364.043,353.021c-7.334-.282-8.647,14.824-8.647,14.824,2.775,2.093,6.774,2.871,11.4,2.974C366.577,367.047,370.654,353.276,364.043,353.021Z" transform="translate(-355.396 -353.017)" fill="#00ebd5"/></g><path d="M364.671,348.59s-.462,1.717,0,6.121c.124,1.184,6.7,3.751,5.908.847a29.231,29.231,0,0,1-.89-5.337Z" transform="translate(-348.751 -332.294)" fill="#c6c9fa"/><path d="M364.169,349.253a2.969,2.969,0,0,1,.117.513A8.335,8.335,0,0,0,365.6,353.4a4.748,4.748,0,0,0,3.436,2.1,4.681,4.681,0,0,0,3.421-1.314,7.991,7.991,0,0,0,1.979-3.166c.676-1.852,1.45-4.154.375-5.8-.519-.8-3.231-2.118-5.16-2.985a2.947,2.947,0,0,0-3.412.735l-1.888,2.118a2.958,2.958,0,0,0-.6,2.894Z" transform="translate(-349.261 -336.177)" fill="#c6c9fa"/><path d="M367.068,351.489c-1.336-4.377-2.931-.835-1.254,1.436a3.831,3.831,0,0,0,.379,1.992,7.981,7.981,0,0,1-2.772-2.544c-1.4-1.765-3.277-9.521,2.049-11.5,5.735-7.488,13.922,3.943,15.21,3.356-.057,1.527-1.331,4.692-4.5,5.057-1.376.159-4.142.463-5.414-.083C368.292,348.144,367.244,352.068,367.068,351.489Z" transform="translate(-350.244 -338.321)" fill="#3f00c3"/><g transform="translate(16.121 43.943)"><g transform="translate(24.463)"><path d="M405.686,391.076H381.011a.873.873,0,0,1,0-1.746l4.4-23.276s23.984-.1,24.463,0a.875.875,0,0,1,.682,1.03Z" transform="translate(-380.138 -366.012)" fill="#b6b9ff"/></g><g transform="translate(0 0.025)"><path d="M390.27,391.067H365.595a.873.873,0,1,1,0-1.746h23.249l4.588-22.594a.873.873,0,1,1,1.711.348Z" transform="translate(-364.722 -366.028)" fill="#9594f9"/></g></g><path d="M379.7,388.159c6.435.262,11.189,1.133,10.519,3.523-.889,3.175-17.248,4.2-17.2.5C373.057,390.06,372.973,387.886,379.7,388.159Z" transform="translate(-343.727 -309.086)" fill="#11025f"/></g><g transform="translate(570.346 317.867)"><rect width="71.706" height="83.242" rx="1.934" fill="#9594f9"/><g transform="translate(4.666 5.086)"><rect width="62.373" height="22.232" rx="1.934" fill="#b6b9ff"/><rect width="62.373" height="22.232" rx="1.934" transform="translate(0 25.419)" fill="#b6b9ff"/><rect width="62.373" height="22.232" rx="1.934" transform="translate(0 50.838)" fill="#b6b9ff"/></g></g><g transform="translate(605.298 340.075)"><g transform="translate(8.141)"><path d="M612.469,416.354c2.817-6.87,5.656-13.817,6.816-21.15s.506-15.2-3.305-21.573a7.917,7.917,0,0,0-1.928-2.341,3.42,3.42,0,0,0-2.866-.687,4.64,4.64,0,0,0-2.636,2.679c-3.085,6.241-2.26,13.687-.541,20.434s4.272,13.388,4.451,20.348" transform="translate(-606.476 -370.513)" fill="#16d6cc"/><g transform="translate(4.64 6.117)" opacity="0.35" style="mix-blend-mode:multiply;isolation:isolate"><path d="M611.69,412.946a.7.7,0,0,0,.693-.651,179.55,179.55,0,0,0-1.6-37.336.7.7,0,0,0-.787-.584.691.691,0,0,0-.584.787A178.328,178.328,0,0,1,611,412.211a.693.693,0,0,0,.651.735Z" transform="translate(-609.4 -374.368)" fill="#60c6bc"/></g></g><g transform="translate(0 14.442)"><path d="M617.575,411.081c-1.666-4.789-1.292-10.007-1.479-15.074s-1.147-10.5-4.765-14.058a8.08,8.08,0,0,0-3.647-2.174,4.965,4.965,0,0,0-4.1.7c-1.574,1.168-2.1,3.286-2.209,5.243-.3,5.514,1.906,10.93,5.108,15.429s7.366,8.209,11.5,11.865" transform="translate(-601.346 -379.614)" fill="#00ebd5"/><g transform="translate(3.983 4.688)" opacity="0.35" style="mix-blend-mode:multiply;isolation:isolate"><path d="M615.821,410.7a.693.693,0,0,0,.676-1.128A48.3,48.3,0,0,1,605.241,383.2a.694.694,0,1,0-1.382.136,49.7,49.7,0,0,0,11.584,27.145A.7.7,0,0,0,615.821,410.7Z" transform="translate(-603.856 -382.569)" fill="#60c6bc"/></g></g><g transform="translate(14.319 15.908)"><path d="M611.225,411a16.84,16.84,0,0,0,6.952-4.791,41.13,41.13,0,0,0,8.739-13.912,15.368,15.368,0,0,0,1.166-5.2,6.886,6.886,0,0,0-1.774-4.907,6.572,6.572,0,0,0-7.477-.9,10.776,10.776,0,0,0-4.962,6.1,32.1,32.1,0,0,0-1.43,7.9q-.662,6.962-1.325,13.925" transform="translate(-609.932 -380.538)" fill="#51f4e0"/><g transform="translate(0 6.738)" opacity="0.35" style="mix-blend-mode:multiply;isolation:isolate"><path d="M611.064,407.071a.7.7,0,0,0,.478-.19,39.788,39.788,0,0,0,11.563-21.273.694.694,0,0,0-1.363-.259,38.4,38.4,0,0,1-11.157,20.526.694.694,0,0,0,.479,1.2Z" transform="translate(-610.369 -384.784)" fill="#60c6bc"/></g></g><path d="M609.239,415.516h12.815l4.6-17.582h-22.02Z" transform="translate(-599.415 -354.421)" fill="#4e01d4"/><rect width="23.884" height="5.772" transform="translate(28.174 47.448) rotate(180)" fill="#9594f9"/></g><g transform="translate(264.407 191.651)"><path d="M392.939,278.476h31.628a4.5,4.5,0,0,1,4.5,4.5v21.484a4.5,4.5,0,0,1-4.5,4.5h-2.3l4.968,5.051-12.949-5.051h-21.35a4.5,4.5,0,0,1-4.5-4.5V282.979A4.5,4.5,0,0,1,392.939,278.476Z" transform="translate(-385.404 -276.102)" fill="#cbc2ff" opacity="0.5" style="mix-blend-mode:multiply;isolation:isolate"/><rect width="40.634" height="30.491" rx="3.793" transform="translate(40.634 30.491) rotate(180)" fill="#fff"/><path d="M410.743,295.234l6.466,6.576-16.856-6.576" transform="translate(-378.409 -266.267)" fill="#fff"/><path d="M421.554,284.308h-31.81a1.187,1.187,0,0,1,0-2.374h31.81a1.187,1.187,0,0,1,0,2.374Zm1.187,5.01a1.187,1.187,0,0,0-1.187-1.187h-31.81a1.187,1.187,0,0,0,0,2.374h31.81A1.187,1.187,0,0,0,422.741,289.318Zm0,6.2a1.188,1.188,0,0,0-1.187-1.189h-31.81a1.188,1.188,0,0,0,0,2.376h31.81A1.187,1.187,0,0,0,422.741,295.516Z" transform="translate(-385.332 -274.073)" fill="#e4e5fb"/></g><g transform="translate(496.075 303.995)"><path d="M570.311,349.342H538.683a4.5,4.5,0,0,0-4.5,4.5v21.484a4.5,4.5,0,0,0,4.5,4.5h2.3l-4.969,5.053,12.949-5.053h21.35a4.5,4.5,0,0,0,4.5-4.5V353.844A4.5,4.5,0,0,0,570.311,349.342Z" transform="translate(-531.54 -346.857)" fill="#cbc2ff" opacity="0.5" style="mix-blend-mode:multiply;isolation:isolate"/><rect width="40.634" height="30.491" rx="3.793" fill="#fff"/><path d="M540.138,366.03l-6.466,6.576,16.855-6.576" transform="translate(-531.838 -337.064)" fill="#fff"/><path d="M534.548,353.917a1.187,1.187,0,0,1,1.187-1.187h31.812a1.187,1.187,0,1,1,0,2.374H535.735A1.187,1.187,0,0,1,534.548,353.917Zm1.187,7.385h31.812a1.188,1.188,0,0,0,0-2.375H535.735a1.188,1.188,0,0,0,0,2.375Zm0,6.2h31.812a1.187,1.187,0,1,0,0-2.374H535.735a1.187,1.187,0,1,0,0,2.374Z" transform="translate(-531.324 -344.869)" fill="#e4e5fb"/></g><g transform="translate(301.027 217.967)"><g transform="translate(0 11.849)"><path d="M411.121,472.323a1.533,1.533,0,0,1-.367-.044,1.518,1.518,0,0,1-1.108-1.838l41.769-168.258a1.516,1.516,0,1,1,2.944.73L412.592,471.173A1.516,1.516,0,0,1,411.121,472.323Z" transform="translate(-409.602 -301.03)" fill="#7474e2"/><g transform="translate(33.294)"><path d="M432.1,472.323a1.546,1.546,0,0,1-.368-.044,1.517,1.517,0,0,1-1.106-1.838L472.4,302.183a1.517,1.517,0,1,1,2.945.73L433.573,471.173A1.518,1.518,0,0,1,432.1,472.323Z" transform="translate(-430.583 -301.03)" fill="#7474e2"/></g><g transform="translate(8.37 10.73)"><path d="M447.949,439.485l-33.073-.116.009-3.032,33.075.114Zm5.3-21.423-33.072-.116.011-3.034,33.073.116Zm5.3-21.426-33.072-.114.009-3.034,33.075.116Zm5.3-21.424-33.072-.116.011-3.034,33.073.116Zm5.3-21.423-33.073-.116.011-3.034,33.075.116Zm5.3-21.426-33.073-.116.011-3.033,33.075.114Zm5.3-21.424-33.072-.114.011-3.034,33.073.116Z" transform="translate(-414.876 -307.792)" fill="#7474e2"/></g></g><g transform="translate(8.158)"><path d="M441.846,317.615c2.033-.814,3.117-2.988,5.241-2.675,1.166.173.682,3.558-1.082,5.4a20.751,20.751,0,0,1-3.726,1.45Z" transform="translate(-398.837 -281.037)" fill="#c6c9fa"/><path d="M432.817,360.134l6.092-.484-.385,2.09,7.7,3.755-15.088-1.068Z" transform="translate(-405.124 -254.78)" fill="#11025f"/><path d="M420.49,373.361l6.092-.484-.385,2.09,7.7,3.755L418.8,377.654Z" transform="translate(-412.359 -247.018)" fill="#11025f"/><path d="M452.608,320.331s-8.45,3.761-13.063,3.761c-3.128,0-6.089-16.775-12.746-16.775-.651,4.08.359,7.731-.793,11.7,2.474,6.319,6.284,13.3,9.708,14.228,3.831,1.041,16.894-6.841,16.894-6.841Z" transform="translate(-408.132 -285.492)" fill="#f7c90b"/><path d="M440.875,328.409c-6.36,1.895-14.889,5.441-21.542,5.54-.011,1.481-.017,2.934-.006,4.056-.054,7.044,8.447,34.932,8.447,34.932l-8.309,26.846,7,.506,11.687-26.142s-.576-14.318-2.683-29.184c2.741,2.376,12.957,9.593,14.369,10.9-1.474,4-10.811,23.135-10.811,23.135l7.677.4s14.921-23.865,14.763-26.447C456.817,344.489,444.3,331.637,440.875,328.409Z" transform="translate(-412.055 -273.114)" fill="#4e01d4"/><path d="M439.571,329.425a1.709,1.709,0,0,1-2.314-2.036c2-6.3.625-16.064-2.777-18.809-3.658-2.952-8.915-2.277-13.077-1.208-11.192,7.6-5.321,42.02-1.677,52.8,14.869-3.228,21.518-5.107,29.907-13.252C447.888,341.344,438.972,334.356,439.571,329.425Z" transform="translate(-414.652 -285.994)" fill="#f7c90b"/><path d="M435.973,331.452c-14.62.5-15.085-11.1-20.985-14.064.243,1.949-.07,12.512,4.889,20.209,2.293,3.559,26.075,3.059,29.438,2.218-.963-2.379-3.06-4.978-5.07-7.547C441.5,332.174,438.785,331.356,435.973,331.452Z" transform="translate(-414.598 -279.582)" fill="#f7c90b" opacity="0.47" style="mix-blend-mode:multiply;isolation:isolate"/><path d="M423.36,304.315a8.494,8.494,0,0,1-.525,3.516c1.277,1.779,3.585,3.451,4.424,3.285s-.165-1.541-.165-1.695a15.38,15.38,0,0,1,.79-4.434" transform="translate(-409.993 -287.254)" fill="#c6c9fa"/><rect width="49.015" height="54.745" rx="2.703" transform="translate(82.376 64.406) rotate(-169.623)" fill="#b6b9ff"/><path d="M433.659,301.593c-.062,4.692-2.921,12.179-7.737,8.788a12.914,12.914,0,0,1-5.227-8.84S429.109,290.029,433.659,301.593Z" transform="translate(-411.25 -291.876)" fill="#c6c9fa"/><path d="M438.057,327.222c2.185.141,4.018-1.155,5.287-.436s4.377,4.527-1.69,4.386-5,0-5,0Z" transform="translate(-401.927 -274.195)" fill="#c6c9fa"/><path d="M424.553,307.613c-1.452-1.89-6.009-.124-7.549,2.049-5.83,8.228,1.311,26.7,2.506,29.417,2.6,5.911,31.328,4.6,31.328,4.6l1.612-5.237s-22.216-2.858-24.866-4.8C426.551,332.884,429.695,314.294,424.553,307.613Z" transform="translate(-414.743 -285.789)" fill="#f7c90b"/><path d="M439.863,298.61a2.09,2.09,0,0,0-3.036-.17,1.69,1.69,0,0,0-2.521-2.242c.235-.76-.549-1.523-1.342-1.582a4.025,4.025,0,0,0-2.223.751,1.907,1.907,0,0,0-3.331-.765,1.036,1.036,0,0,0-.849-1,2.415,2.415,0,0,0-1.395.211,4.109,4.109,0,0,0-2.039,1.554,2.146,2.146,0,0,0,.063,2.441.987.987,0,0,0-1.312-.181,1.611,1.611,0,0,0-.649,1.257,4.734,4.734,0,0,0,.2,1.447,1.279,1.279,0,0,0-1.761-.3,1.941,1.941,0,0,0-.743,1.76,4.251,4.251,0,0,0,.7,1.855,18.784,18.784,0,0,1,1.035,1.711c-1.409,3.469,4.093,5.3,5.094,5.789.755-.379.482-2.858.39-2.993-1.809-2.669,1.287-5.111,1.233-.887,0,0,.276,1.238.895-.965,0,0,.5-2.453,5.151-1.863.079.01.149,0,.227,0a1.4,1.4,0,0,0,.533.248,1.488,1.488,0,0,0,1.295-.411,4.98,4.98,0,0,0,.581-.176,3.428,3.428,0,0,0,1.679.4,2.155,2.155,0,0,0,1.761-.992,1.544,1.544,0,0,0-.279-1.917A2.09,2.09,0,0,0,439.863,298.61Z" transform="translate(-412.291 -293.564)" fill="#3f00c3"/></g></g><g transform="translate(412.788 347.399)"><path d="M575.316,385.905l3.247-7.035,12.117-1.355-8.484,6.477-2.826,3.385Z" transform="translate(-424.112 -373.728)" fill="#11025f"/><path d="M582.776,386.1l3.247-7.035,12.117,3.609-8.484,1.513-2.826,3.386Z" transform="translate(-419.734 -372.819)" fill="#11025f"/><path d="M582.824,408.708c3.328-11.3,4.484-17.1,12.249-25.959,1.036-1.181,6.8-.3,7.7.99-8.6,12.036-10.291,37.785-14.252,39.692s-33.416-.267-48.406-.119c1.784-.017,11.073-11.924,11.1-13.136C551.539,398.181,576.013,405.776,582.824,408.708Z" transform="translate(-444.77 -370.981)" fill="#3700bf"/><path d="M586.4,414.189c3.328-11.3,8.317-22.027,16.081-30.883,1.036-1.181,7.146-.931,8.047.357-8.6,12.036-10.488,38.467-14.447,40.374s-33.694.557-48.683.7c1.782-.017-.508-13.579-.284-14.77C549.323,398.257,579.594,411.256,586.4,414.189Z" transform="translate(-440.669 -370.776)" fill="#4e01d4"/><g transform="translate(20.377 29.705)"><path d="M536.766,394.617a3.763,3.763,0,0,1,2.707,4.178c-.933,8.545-.387,14.5-6.4,17.416-3.739,1.812-27.715.7-29.792.841a11.409,11.409,0,0,1-4.315-1,3.474,3.474,0,0,0-2.379-.078,5.334,5.334,0,0,1-3.605.144c-.862-.459,3.564-3.623,5.692-4.042,1.242-.243,4.948.5,6.081.936.935.357,19.853-.482,22.64-1.788,3.654-1.711,3.344-6.425,6.278-12.028C535.947,394.855,536.766,394.617,536.766,394.617Z" transform="translate(-492.872 -393.396)" fill="#c6c9fa"/><path d="M524.564,394.047c5.568,1.933-.619,13.187-.619,13.187-2.687.752-4.968-.7-8.461-1.977C516.753,402.5,519.546,392.306,524.564,394.047Z" transform="translate(-479.602 -393.848)" fill="#ff7171"/></g><path d="M523.7,414.725c-5.2-2.942-10-20.728,4.665-23.068,10.256-1.638,14.736,4.281,22.262,7.058,10.608,3.913,15.95,1.043,15.95,1.043,2.387,9.707,3.994,15.469-1.711,19.928,0,0-4.326-.716-16.5-.162C540.337,419.889,533.193,420.1,523.7,414.725Z" transform="translate(-457.406 -365.594)" fill="#ff7171"/><g transform="translate(33.487 28.772)"><path d="M545.028,394.408a3.649,3.649,0,0,1,2.709,4.178c-1.774,9.261-2.328,13.777-9.367,18.254-3.507,2.228-24.749-.144-26.827,0a11.438,11.438,0,0,1-4.315-1,3.465,3.465,0,0,0-2.379-.078,5.335,5.335,0,0,1-3.605.144c-.86-.459,3.564-3.624,5.692-4.042,1.242-.244,4.948.5,6.081.936.935.357,17.706.657,20.493-.647,3.654-1.711,3.942-8.436,6.876-14.037C542.662,393.776,545.028,394.408,545.028,394.408Z" transform="translate(-501.134 -392.605)" fill="#c6c9fa"/><path d="M532.735,393.5c6.936,2.407.813,16.68.813,16.68-3.347.938-5.975-.455-10.324-2.045C524.805,404.7,526.486,391.327,532.735,393.5Z" transform="translate(-488.171 -393.26)" fill="#ff7171"/></g><path d="M523.765,389.342a29.959,29.959,0,0,1,1.941,4.908c.863,2.561-4.3,7.776-4.626,3-.263-3.84-.979-3.931-.843-3.988Z" transform="translate(-456.446 -366.787)" fill="#c6c9fa"/><path d="M527.335,389.534a2.923,2.923,0,0,0,.044.525,8.3,8.3,0,0,1-.133,3.859,4.748,4.748,0,0,1-2.625,3.053,4.677,4.677,0,0,1-3.661-.2,7.962,7.962,0,0,1-2.853-2.407c-1.211-1.555-2.653-3.51-2.134-5.411.249-.917,2.425-3.005,4-4.423a2.95,2.95,0,0,1,3.472-.346l2.445,1.439a2.951,2.951,0,0,1,1.457,2.571Z" transform="translate(-459.002 -370.056)" fill="#c6c9fa"/><path d="M527.555,392.15c-.07-4.575,2.534-1.693,1.633.982a3.834,3.834,0,0,1,.249,2.012,8,8,0,0,0,1.858-3.272c.8-2.109.2-10.065-5.473-10.318-7.753-5.37-12.044,8.02-13.45,7.857.524,1.435,2.706,4.058,5.833,3.434,1.357-.27,4.085-.828,5.127-1.736C525.364,389.339,527.565,392.754,527.555,392.15Z" transform="translate(-461.051 -372.103)" fill="#3f00c3"/><g transform="translate(0 28.646)"><path d="M484.92,418.244h24.674a.872.872,0,1,0,0-1.744l-4.4-23.278s-23.984-.1-24.463,0a.875.875,0,0,0-.681,1.03Z" transform="translate(-480.031 -393.18)" fill="#b6b9ff"/><g transform="translate(24.463 0.025)"><path d="M500.336,418.235H525.01a.872.872,0,1,0,0-1.744H501.763l-4.588-22.6a.873.873,0,1,0-1.711.348Z" transform="translate(-495.447 -393.196)" fill="#9594f9"/></g></g><path d="M520.628,385.163a12.593,12.593,0,0,1,3.994-7.5,9.967,9.967,0,0,1,8.031-2.422,8.273,8.273,0,0,1,6.4,5.214c1.2,3.429-.181,7.436,1.333,10.737.919,2,2.749,3.4,4.327,4.932s3.037,3.524,2.836,5.717c-.238,2.587-2.9,4.488-5.5,4.5a9.532,9.532,0,0,1-6.771-3.383c-1.739-1.877-3.039-4.413-2.6-6.935.465-2.7,2.785-4.8,3.214-7.506a6.54,6.54,0,0,0-4.8-6.935c-2.971-.808-7.352,1.676-9.4,3.972" transform="translate(-456.206 -375.128)" fill="#3f00c3"/></g><g transform="translate(583.529 244.33)"><path d="M599.042,367.007l.025-3.62c0-5.578-2.206-11.225-6.371-16.335a22.353,22.353,0,0,1-4.716-18.217,22.665,22.665,0,1,1,39.865,18.279c-4.129,5.024-6.314,10.653-6.314,16.268l.048,3.624Z" transform="translate(-587.628 -310.177)" fill="#e4e5fb"/><path d="M608.263,354.7c.027-.536.054-1.073.067-1.611.01-.462,5.161-17.72,3.224-21.212a2.718,2.718,0,0,0-1.606-1.339,3.334,3.334,0,0,0-2.431.375,4.028,4.028,0,0,0-3.109-1.646h0a3.32,3.32,0,0,0-2.934,1.693,3.783,3.783,0,0,0-.389-.186,3.05,3.05,0,0,0-3.217.436c-2.349,1.982,2.937,21.188,2.937,21.664V354.7Zm-8.8-21.823c.119-.1.268-.233.722-.036a2.465,2.465,0,0,1,.425.251,3.335,3.335,0,0,0,.565,3.177,1.869,1.869,0,0,0,2.063.246,1.722,1.722,0,0,0,1.019-1.674,4.218,4.218,0,0,0-.971-2.309,3.461,3.461,0,0,1,.3-.516c.146-.2.432-.528.717-.516a1.709,1.709,0,0,1,1.371.844,5.159,5.159,0,0,0-1.1,1.738,1.981,1.981,0,0,0,1.323,2.709,1.9,1.9,0,0,0,1.918-.457,3.751,3.751,0,0,0,.616-3.336,1.891,1.891,0,0,1,.8-.33.514.514,0,0,1,.2.23c1.354,2.447-.963,12.165-3.134,19.149h-3.429C600.378,343.411,598.47,334.187,599.462,332.874Z" transform="translate(-581.973 -298.978)" fill="#fff"/><path d="M593.361,348.27h0a2.981,2.981,0,0,0,2.98,2.98h21.183a2.981,2.981,0,0,0,2.98-2.98h0a2.98,2.98,0,0,0-2.98-2.98H596.341A2.981,2.981,0,0,0,593.361,348.27Z" transform="translate(-584.263 -289.571)" fill="#4e01d4"/><path d="M593.361,352.025h0a2.981,2.981,0,0,0,2.98,2.98h21.183a2.98,2.98,0,0,0,2.98-2.98h0a2.979,2.979,0,0,0-2.98-2.979H596.341A2.979,2.979,0,0,0,593.361,352.025Z" transform="translate(-584.263 -287.367)" fill="#4e01d4"/><path d="M593.361,355.781h0a2.979,2.979,0,0,0,2.98,2.979h21.183a2.979,2.979,0,0,0,2.98-2.979h0a2.981,2.981,0,0,0-2.98-2.98H596.341A2.981,2.981,0,0,0,593.361,355.781Z" transform="translate(-584.263 -285.163)" fill="#4e01d4"/></g></g><g transform="translate(210.613 187.517)"><path d="M297.328,263.505a5.2,5.2,0,1,0,5.2-5.2A5.2,5.2,0,0,0,297.328,263.505Z" transform="translate(-159.724 -120.858)" fill="#7474e2"/><circle cx="5.634" cy="5.634" r="5.634" transform="translate(707.116 149.376)" fill="#7474e2"/><circle cx="5.43" cy="5.43" r="5.43" transform="translate(505.197)" fill="#7474e2"/><path d="M643.852,386.99a3.821,3.821,0,1,0,3.821-3.821A3.821,3.821,0,0,0,643.852,386.99Z" transform="translate(43.637 -47.583)" fill="#7474e2"/><path d="M210.613,370.6a3.822,3.822,0,1,0,3.821-3.821A3.821,3.821,0,0,0,210.613,370.6Z" transform="translate(-210.613 -57.202)" fill="#7474e2"/><circle cx="4.521" cy="4.521" r="4.521" transform="translate(250.51 40.462)" fill="#7474e2"/><circle cx="3.879" cy="3.879" r="3.879" transform="translate(135.402 27.617)" fill="#7474e2"/><circle cx="3.879" cy="3.879" r="3.879" transform="translate(434.722 69.28)" fill="#7474e2"/><circle cx="3.879" cy="3.879" r="3.879" transform="translate(65.999 350.709)" fill="#7474e2"/><circle cx="3.879" cy="3.879" r="3.879" transform="translate(669.065 216.793)" fill="#7474e2"/><circle cx="3.879" cy="3.879" r="3.879" transform="translate(604.839 73.159)" fill="#7474e2"/></g></g></svg>